<svg xmlns="http://www.w3.org/2000/svg" viewBox="0 0 240 210" width="240" height="210" role="img" aria-labelledby="title"><title id="title">Halvorsen attractor</title><g fill="none" stroke="#30343b" stroke-width="1" stroke-opacity=".35" stroke-linecap="round" stroke-linejoin="round"><path d="M76.63 62.36L79.08 58.95L81.80 56.36L84.71 54.44L87.73 53.08L90.81 52.15L93.91 51.56L96.98 51.22L100.00 51.06L102.97 51.02L105.89 51.04L108.76 51.09L111.59 51.12L114.42 51.10L117.27 51.01L120.15 50.83L123.12 50.53L126.19 50.10L129.41 49.51L132.80 48.75L136.42 47.81L140.30 46.67L144.48 45.31L149.02 43.73L153.94 41.95L159.30 39.98L165.12 37.88L171.41 35.75L178.13 33.74L185.18 32.13L192.32 31.27L199.17 31.66L205.12 33.90L209.37 38.61L211.00 46.22L209.23 56.77L203.72 69.70L194.78 83.86L183.32 97.83L170.55 110.25L157.62 120.13L145.40 126.98L134.39 130.72L124.83 131.60L116.77 130.08L110.16 126.73L104.89 122.13L100.80 116.85L97.73 111.32L95.50 105.89L93.92 100.78L92.83 96.11L92.07 91.93L91.54 88.23L91.12 84.97L90.74 82.11L90.33 79.59L89.85 77.36L89.27 75.36L88.58 73.55L87.74 71.90L86.75 70.37L85.61 68.94L84.31 67.58L82.84 66.27L81.21 65.00L79.41 63.74L77.45 62.47L75.34 61.18L73.08 59.85L70.71 58.46L68.23 56.98L65.70 55.39L63.17 53.69L60.72 51.84L58.45 49.86L56.48 47.73L54.97 45.50L54.11 43.19L54.10 40.88L55.11 38.67L57.31 36.68L60.80 35.04L65.58 33.86L71.54 33.23L78.47 33.20L86.08 33.74L94.08 34.79L102.15 36.22L110.06 37.91L117.63 39.71L124.78 41.51L131.46 43.20L137.68 44.72L143.48 46.03L148.91 47.10L154.00 47.95L158.81 48.60L163.34 49.11L167.63 49.53L171.65 49.96L175.38 50.48L178.76 51.22L181.73 52.29L184.17 53.80L185.99 55.87L187.07 58.56L187.32 61.92L186.67 65.93L185.10 70.51L182.68 75.56L179.50 80.91L175.71 86.40L171.50 91.89L167.06 97.27L162.54 102.46L158.11 107.43L153.85 112.19L149.85 116.76L146.13 121.19L142.73 125.54L139.63 129.83L136.81 134.12L134.24 138.42L131.87 142.74L129.65 147.05L127.50 151.31L125.36 155.44L123.12 159.30L120.70 162.72L118.01 165.48L114.97 167.31L111.55 167.93L107.74 167.07L103.62 164.54L99.32 160.27L94.99 154.37L90.83 147.10L86.98 138.83L83.57 130.01L80.64 121.07L78.18 112.35L76.13 104.11L74.42 96.49L72.96 89.55L71.69 83.30L70.55 77.70L69.51 72.69L68.56 68.21L67.72 64.20L67.01 60.61L66.47 57.38L66.15 54.48L66.11 51.87L66.42 49.56L67.12 47.52L68.27 45.75L69.90 44.26L72.02 43.06L74.63 42.14L77.70 41.51L81.17 41.16L84.98 41.05L89.05 41.18L93.31 41.49L97.69 41.94L102.14 42.49L106.61 43.07L111.08 43.64L115.53 44.15L119.99 44.57L124.46 44.84L128.97 44.95L133.55 44.86L138.25 44.54L143.09 43.99L148.12 43.21L153.38 42.20L158.89 40.98L164.66 39.63L170.69 38.23L176.93 36.94L183.28 35.98L189.55 35.64L195.41 36.32L200.43 38.45L204.03 42.48L205.57 48.71L204.52 57.19L200.61 67.59L193.98 79.21L185.19 91.11L175.05 102.35L164.42 112.17L154.01 120.12L144.32 126.02L135.60 129.90L127.94 131.93L121.34 132.37L115.71 131.51L110.96 129.63L106.98 127.02L103.66 123.93L100.88 120.56L98.54 117.07L96.55 113.59L94.82 110.19L93.25 106.92L91.79 103.80L90.36 100.85L88.90 98.03L87.38 95.35L85.75 92.77L83.96 90.26L81.99 87.81L79.79 85.37L77.36 82.92L74.65 80.43L71.64 77.87L68.33 75.19L64.70 72.36L60.77 69.33L56.57 66.06L52.18 62.49L47.73 58.58L43.45 54.31L39.65 49.66L36.79 44.70L35.46 39.58L36.34 34.54L40.07 29.99L47.08 26.37L57.38 24.16L70.41 23.66L85.14 24.94L100.31 27.83L114.72 31.99L127.50 37.02L138.13 42.55L146.45 48.32L152.51 54.14L156.53 59.87L158.81 65.41L159.65 70.70L159.40 75.69L158.32 80.33L156.69 84.61L154.71 88.53L152.56 92.12L150.35 95.43L148.18 98.49L146.10 101.37L144.16 104.12L142.37 106.80L140.74 109.47L139.28 112.17L137.97 114.95L136.81 117.86L135.78 120.94L134.88 124.23L134.09 127.77L133.39 131.58L132.75 135.71L132.14 140.16L131.51 144.95L130.81 150.06L129.95 155.47L128.84 161.06L127.34 166.67L125.30 172.03L122.56 176.75L118.94 180.26L114.36 181.92L108.82 181.02L102.50 177.00L95.75 169.66L89.07 159.25L82.98 146.55L77.95 132.63L74.24 118.59L71.95 105.36L71.03 93.54L71.37 83.43L72.78 75.11L75.08 68.48L78.08 63.38L81.59 59.58L85.44 56.89L89.48 55.07L93.58 53.94L97.63 53.34L101.58 53.10L105.37 53.11L109.00 53.26L112.46 53.48L115.77 53.70L118.97 53.86L122.09 53.94L125.16 53.89L128.22 53.70L131.32 53.34L134.49 52.80L137.79 52.07L141.23 51.13L144.88 49.97L148.77 48.60L152.93 47.01L157.42 45.23L162.26 43.29L167.47 41.24L173.06 39.20L178.98 37.31L185.15 35.81L191.35 35.01L197.26 35.33L202.39 37.24L206.10 41.25L207.67 47.69L206.47 56.62L202.18 67.67L194.94 80.03L185.40 92.62L174.46 104.36L163.08 114.42L152.04 122.28L141.84 127.78L132.74 130.99L124.83 132.13L118.09 131.55L112.42 129.59L107.72 126.64L103.85 123.03L100.70 119.06L98.13 114.96L96.03 110.88L94.26 106.96L92.74 103.24L91.37 99.77L90.06 96.53L88.76 93.52L87.40 90.71L85.94 88.06L84.35 85.56L82.58 83.16L80.61 80.83L78.42 78.54L75.98 76.25L73.29 73.95L70.32 71.58L67.10 69.12L63.62 66.53L59.93 63.76L56.08 60.78L52.19 57.54L48.41 54.02L44.99 50.20L42.26 46.13L40.64 41.88L40.61 37.63L42.69 33.62L47.27 30.18L54.53 27.66L64.28 26.35L75.97 26.40L88.78 27.80L101.80 30.36L114.20 33.79L125.42 37.77L135.11 42.04L143.16 46.39L149.61 50.70L154.57 54.89L158.21 58.93L160.72 62.80L162.26 66.50L163.03 70.03L163.15 73.39L162.78 76.58L162.02 79.62L160.99 82.52L159.76 85.27L158.41 87.91L156.99 90.46L155.54 92.93L154.09 95.36L152.66 97.78L151.28 100.22L149.95 102.71L148.67 105.30L147.45 108.01L146.29 110.88L145.19 113.96L144.14 117.29L143.14 120.90L142.18 124.84L141.24 129.16L140.32 133.88L139.39 139.06L138.39 144.71L137.28 150.83L135.96 157.38L134.32 164.24L132.17 171.19L129.33 177.86L125.54 183.64L120.59 187.71L114.34 189.06L106.89 186.65L98.58 179.80L90.09 168.48L82.25 153.55L75.87 136.52L71.52 119.16L69.47 102.96L69.72 88.92L72.09 77.53L76.22 68.85L81.69 62.69L88.01 58.72L94.72 56.54L101.42 55.73L107.78 55.92L113.61 56.78L118.82 58.04L123.38 59.50L127.33 60.99L130.75 62.43L133.71 63.74L136.31 64.88L138.62 65.83L140.72 66.57L142.66 67.12L144.50 67.46L146.27 67.60L148.00 67.56L149.72 67.33L151.45 66.94L153.22 66.37L155.04 65.65L156.92 64.79L158.87 63.78L160.92 62.65L163.06 61.42L165.32 60.09L167.69 58.72L170.18 57.32L172.79 55.96L175.48 54.69L178.23 53.58L180.99 52.75L183.69 52.28L186.20 52.32L188.40 52.98L190.13 54.39L191.21 56.65L191.47 59.81L190.79 63.87L189.08 68.74L186.36 74.27L182.72 80.26L178.34 86.46L173.43 92.69L168.23 98.75L162.97 104.54L157.81 110.01L152.90 115.13L148.31 119.95L144.09 124.51L140.26 128.85L136.79 133.02L133.66 137.06L130.82 140.97L128.21 144.75L125.78 148.37L123.44 151.77L121.13 154.85L118.78 157.52L116.31 159.61L113.67 160.97L110.83 161.43L107.79 160.84L104.56 159.10L101.21 156.14L97.82 152.03L94.50 146.88L91.32 140.90L88.36 134.34L85.65 127.47L83.19 120.52L80.96 113.68L78.90 107.09L76.94 100.84L75.03 94.97L73.11 89.47L71.12 84.33L69.05 79.52L66.87 74.98L64.61 70.68L62.28 66.58L59.95 62.64L57.72 58.82L55.70 55.11L54.06 51.51L52.97 48.03L52.66 44.71L53.35 41.62L55.23 38.87L58.45 36.56L63.03 34.82L68.92 33.73L75.90 33.34L83.70 33.63L91.97 34.53L100.36 35.92L108.61 37.63L116.49 39.53L123.90 41.47L130.78 43.34L137.12 45.05L142.98 46.56L148.38 47.84L153.39 48.90L158.06 49.76L162.41 50.47L166.46 51.07L170.23 51.65L173.69 52.28L176.81 53.07L179.54 54.10L181.81 55.48L183.53 57.29L184.64 59.60L185.05 62.44L184.71 65.83L183.61 69.70L181.78 74.00L179.28 78.61L176.21 83.41L172.72 88.28L168.95 93.15L165.03 97.92L161.10 102.57L157.24 107.10L153.55 111.51L150.07 115.84L146.83 120.13L143.83 124.44L141.09 128.81L138.57 133.26L136.25 137.83L134.09 142.51L132.04 147.30L130.01 152.15L127.94 156.96L125.71 161.60L123.22 165.84L120.34 169.40L116.98 171.93L113.08 173.02L108.62 172.28L103.72 169.40L98.54 164.27L93.35 157.00L88.43 147.99L84.02 137.81L80.29 127.11L77.30 116.49L75.05 106.41L73.46 97.16L72.43 88.90L71.87 81.67L71.69 75.42L71.83 70.08L72.24 65.55L72.89 61.73L73.77 58.54L74.86 55.88L76.16 53.69L77.66 51.92L79.34 50.49L81.20 49.37L83.21 48.52L85.36 47.89L87.63 47.46L90.00 47.19L92.46 47.05L94.98 47.01L97.56 47.05L100.19 47.13L102.87 47.24L105.60 47.34L108.39 47.42L111.25 47.46L114.19 47.43L117.24 47.32L120.41 47.10L123.75 46.76L127.27 46.27L131.01 45.61L135.01 44.77L139.31 43.72"/><path d="M42.22 37.95L44.97 33.92L50.16 30.62L57.85 28.34L67.77 27.31L79.34 27.60L91.76 29.16L104.20 31.75L115.95 35.09L126.54 38.88L135.71 42.89L143.36 46.93L149.57 50.89L154.44 54.71L158.12 58.37L160.78 61.86L162.56 65.20L163.62 68.38L164.07 71.42L164.04 74.34L163.61 77.13L162.89 79.80L161.94 82.37L160.84 84.85L159.62 87.24L158.33 89.58L157.00 91.88L155.67 94.17L154.34 96.46L153.03 98.79L151.76 101.18L150.52 103.67L149.31 106.29L148.15 109.08L147.03 112.07L145.95 115.30L144.90 118.81L143.89 122.65L142.90 126.86L141.91 131.48L140.92 136.55L139.88 142.10L138.75 148.14L137.45 154.66L135.86 161.57L133.85 168.69L131.21 175.71L127.71 182.11L123.10 187.12L117.20 189.74L109.98 188.88L101.71 183.62L92.97 173.65L84.60 159.51L77.49 142.61L72.34 124.76L69.56 107.67L69.23 92.58L71.22 80.15L75.20 70.58L80.71 63.74L87.24 59.30L94.26 56.84L101.31 55.93L108.01 56.14L114.13 57.12L119.53 58.57L124.21 60.25L128.19 61.99L131.56 63.69L134.40 65.25L136.83 66.65L138.93 67.85L140.77 68.85L142.44 69.64L143.97 70.24L145.41 70.65L146.79 70.87L148.15 70.93L149.50 70.82L150.87 70.56L152.25 70.15L153.67 69.59L155.14 68.91L156.66 68.10L158.25 67.16L159.92 66.12L161.67 64.97L163.51 63.74L165.45 62.44L167.50 61.09L169.66 59.73L171.92 58.39L174.26 57.12L176.68 55.98L179.12 55.05L181.53 54.42L183.84 54.17L185.93 54.42L187.69 55.28L188.98 56.83L189.65 59.15L189.57 62.26L188.65 66.14L186.85 70.69L184.19 75.79L180.76 81.25L176.73 86.90L172.27 92.57L167.58 98.12L162.83 103.49L158.17 108.62L153.71 113.52L149.52 118.22L145.65 122.75L142.11 127.17L138.88 131.51L135.95 135.81L133.28 140.09L130.81 144.34L128.48 148.53L126.22 152.60L123.95 156.45L121.58 159.94L119.03 162.89L116.22 165.07L113.08 166.23L109.61 166.14L105.82 164.58L101.81 161.43L97.70 156.70L93.65 150.56L89.81 143.28L86.30 135.24L83.19 126.83L80.50 118.42L78.19 110.27L76.21 102.59L74.48 95.48L72.93 88.97L71.49 83.06L70.11 77.71L68.78 72.87L67.50 68.48L66.28 64.48L65.16 60.83L64.20 57.48L63.47 54.42L63.05 51.60L63.02 49.04L63.47 46.73L64.49 44.69L66.12 42.94L68.41 41.50L71.36 40.40L74.92 39.64L79.04 39.24L83.60 39.16L88.51 39.38L93.64 39.85L98.89 40.50L104.16 41.28L109.41 42.10L114.59 42.91L119.68 43.63L124.70 44.23L129.66 44.66L134.60 44.89L139.55 44.88L144.55 44.64L149.64 44.15L154.86 43.44L160.22 42.54L165.74 41.51L171.40 40.46L177.16 39.52L182.90 38.91L188.45 38.88L193.55 39.76L197.82 41.90L200.82 45.63L202.05 51.19L201.13 58.59L197.86 67.59L192.34 77.67L184.97 88.13L176.38 98.26L167.23 107.49L158.11 115.42L149.45 121.87L141.52 126.84L134.43 130.40L128.20 132.70L122.77 133.90L118.08 134.19L114.02 133.71L110.53 132.63L107.52 131.07L104.90 129.16L102.63 127.00L100.62 124.67L98.84 122.24L97.23 119.77L95.74 117.29L94.32 114.82L92.95 112.38L91.57 109.97L90.16 107.58L88.67 105.22L87.08 102.85L85.36 100.48L83.46 98.07L81.36 95.61L79.03 93.08L76.42 90.44L73.52 87.68L70.27 84.76L66.67 81.64L62.68 78.28L58.31 74.64L53.59 70.67L48.59 66.31L43.46 61.51L38.46 56.22L34.02 50.47L30.74 44.32L29.45 37.99L31.08 31.85L36.50 26.48L46.21 22.54L59.95 20.63L76.64 21.08L94.59 23.88L111.97 28.65L127.29 34.89L139.63 42.09L148.62 49.83L154.33 57.78L157.14 65.64L157.57 73.17L156.20 80.15L153.60 86.42L150.27 91.91L146.60 96.60L142.87 100.53L139.30 103.79L135.99 106.49L132.99 108.74L130.34 110.65L128.02 112.32L126.02 113.83L124.30 115.25L122.84 116.63L121.60 118.01L120.58 119.43L119.73 120.91L119.05 122.47L118.52 124.12L118.11 125.88L117.81 127.76L117.62 129.76L117.51 131.90L117.46 134.17L117.46 136.58L117.49 139.13L117.51 141.81L117.50 144.61L117.42 147.49L117.23 150.43L116.88 153.35L116.32 156.18L115.49 158.81L114.34 161.09L112.81 162.86L110.89 163.92L108.55 164.06L105.83 163.12L102.78 160.95L99.51 157.51L96.12 152.84L92.76 147.08L89.53 140.48L86.52 133.32L83.79 125.89L81.32 118.45L79.09 111.20L77.05 104.29L75.13 97.78L73.27 91.72L71.41 86.09L69.52 80.88L67.58 76.02L65.58 71.49L63.56 67.24L61.56 63.22L59.65 59.41L57.96 55.76L56.60 52.29L55.72 48.98L55.52 45.88L56.14 43.02L57.76 40.48L60.49 38.33L64.36 36.67L69.33 35.55L75.27 35.02L81.96 35.06L89.16 35.63L96.59 36.63L104.03 37.94L111.29 39.44L118.25 41.01L124.85 42.54L131.08 43.94L136.96 45.15L142.51 46.15L147.79 46.90L152.85 47.43L157.71 47.74L162.41 47.90L166.94 47.95L171.31 47.99L175.48 48.13L179.37 48.49L182.91 49.21L185.96 50.45L188.38 52.36L189.99 55.05L190.64 58.60L190.20 63.02L188.63 68.22L185.94 74.05L182.25 80.30L177.78 86.73L172.76 93.12L167.45 99.30L162.08 105.15L156.83 110.63L151.86 115.73L147.23 120.48L142.99 124.94L139.15 129.15L135.69 133.17L132.57 137.03L129.76 140.74L127.18 144.30L124.79 147.68L122.50 150.83L120.27 153.68L118.00 156.11L115.66 158.01L113.17 159.24L110.52 159.66L107.70 159.13L104.72 157.56L101.63 154.92L98.50 151.24L95.41 146.62L92.44 141.23L89.64 135.27L87.04 128.97L84.64 122.53L82.43 116.13L80.36 109.91L78.37 103.93L76.40 98.26L74.40 92.89L72.31 87.82L70.10 83.02L67.75 78.46L65.25 74.09L62.63 69.88L59.93 65.78L57.23 61.76L54.64 57.79L52.33 53.87L50.50 49.99L49.39 46.20L49.30 42.57L50.49 39.22L53.21 36.28L57.60 33.92L63.65 32.30L71.18 31.51L79.84 31.59L89.21 32.47L98.80 34.03L108.22 36.08L117.16 38.42L125.42 40.88L132.91 43.32L139.64 45.64L145.63 47.78L150.95 49.71L155.67 51.44L159.84 52.99L163.53 54.40L166.77 55.73L169.59 57.03L171.99 58.36L173.97 59.77L175.54 61.32L176.67 63.05L177.37 64.99L177.61 67.16L177.41 69.55L176.78 72.17L175.74 74.99L174.33 77.96L172.59 81.07L170.59 84.26L168.38 87.51L166.02 90.80L163.58 94.10L161.10 97.42L158.64 100.77L156.21 104.17L153.86 107.63L151.60 111.21L149.45 114.92L147.41 118.83L145.48 122.96L143.65 127.36L141.92 132.06L140.27 137.10L138.64 142.50L137.01 148.25L135.28 154.30L133.37 160.57L131.12 166.87L128.38 172.89L124.96 178.20L120.66 182.15L115.37 184.00L109.09 182.93L102.03 178.33L94.60 170.00L87.39 158.32L81.03 144.28L75.99 129.16L72.58 114.23L70.88 100.49L70.80 88.53L72.18 78.62L74.78 70.75L78.35 64.78L82.61 60.47L87.32 57.53L92.23 55.70L97.16 54.72L101.96 54.37L106.53 54.44L110.83 54.77L114.83 55.24L118.57 55.74L122.06 56.21L125.36 56.59L128.50 56.83L131.54 56.91L134.53 56.81L137.51 56.52L140.52 56.02L143.60 55.31L146.80 54.38L150.14 53.24L153.67 51.89L157.42 50.35L161.41 48.65L165.67 46.82L170.21 44.94L175.02 43.11L180.05 41.47L185.20 40.23L190.31 39.65L195.10 40.05L199.19 41.79L202.11 45.22L203.34 50.58L202.43 57.90L199.13 66.95L193.53 77.18L186.00 87.87L177.18 98.26L167.76 107.71L158.36 115.82L149.45 122.38L141.28 127.35L133.99 130.84L127.59 132.98L122.03 133.97L117.23 133.99L113.10 133.21L109.56 131.81L106.51 129.94L103.87 127.73L101.59 125.29L99.59 122.71L97.80 120.06L96.19 117.40L94.69 114.75L93.25 112.15L91.84 109.59L90.41 107.08L88.92 104.61L87.34 102.17L85.63 99.74L83.76 97.29L81.69 94.82L79.40 92.28L76.84 89.67L73.99 86.95L70.81 84.08L67.27 81.04L63.37 77.78L59.10 74.25L54.47 70.41L49.58 66.21L44.54 61.57L39.61 56.48L35.18 50.93L31.82 44.98L30.28 38.83L31.46 32.81L36.24 27.45L45.12 23.38L58.00 21.19L73.96 21.26L91.43 23.60L108.67 27.91L124.17 33.72L136.96 40.52L146.59 47.90L153.06 55.52L156.65 63.12L157.83 70.46L157.15 77.35L155.12 83.65L152.24 89.24L148.91 94.12L145.42 98.29L141.99 101.83L138.75 104.83L135.79 107.40L133.13 109.63L130.78 111.62L128.74 113.45L126.97 115.19L125.46 116.90L124.18 118.61L123.12 120.36L122.23 122.19L121.52 124.11L120.95 126.14L120.51 128.31L120.19 130.61L119.96 133.06L119.79 135.66L119.68 138.43L119.58 141.35L119.47 144.41L119.30 147.58L119.03 150.84L118.60 154.11L117.94 157.31L117.00 160.31L115.71 162.95L114.00 165.02L111.84 166.31L109.21 166.56L106.13 165.54L102.68 163.10L98.99 159.17L95.20 153.82L91.47 147.24L87.95 139.75L84.75 131.70L81.90 123.45L79.41 115.31L77.23 107.49L75.31 100.15L73.57 93.36L71.95 87.14L70.39 81.46L68.86 76.28L67.36 71.55L65.89 67.23L64.48 63.25L63.20 59.58L62.12 56.18L61.32 53.04L60.91 50.14L61.00 47.48L61.68 45.09L63.06 42.99L65.19 41.23L68.10 39.82L71.76 38.81L76.12 38.21L81.06 38.01L86.43 38.18L92.10 38.67"/><path d="M59.98 65.13L57.49 61.09L55.15 57.14L53.11 53.27L51.59 49.50L50.81 45.85L51.02 42.41L52.47 39.28L55.35 36.58L59.77 34.45L65.68 33.03L72.92 32.38L81.15 32.52L89.99 33.37L99.03 34.82L107.92 36.70L116.40 38.83L124.30 41.04L131.55 43.22L138.14 45.26L144.11 47.11L149.51 48.74L154.41 50.16L158.85 51.40L162.88 52.48L166.53 53.47L169.81 54.43L172.72 55.43L175.25 56.55L177.37 57.84L179.04 59.39L180.22 61.25L180.88 63.44L180.99 65.99L180.54 68.89L179.53 72.11L178.00 75.60L176.01 79.30L173.61 83.14L170.92 87.06L168.00 91.00L164.96 94.94L161.88 98.85L158.82 102.73L155.84 106.60L152.97 110.49L150.26 114.43L147.70 118.47L145.32 122.65L143.09 127.01L141.02 131.59L139.08 136.41L137.23 141.50L135.43 146.85L133.61 152.41L131.67 158.11L129.50 163.80L126.96 169.22L123.88 174.01L120.13 177.70L115.58 179.69L110.21 179.35L104.14 176.14L97.66 169.82L91.17 160.55L85.15 148.94L80.02 135.93L76.04 122.53L73.32 109.64L71.86 97.89L71.53 87.63L72.20 78.97L73.70 71.89L75.87 66.26L78.58 61.89L81.67 58.61L85.02 56.22L88.52 54.56L92.07 53.46L95.62 52.81L99.10 52.47L102.48 52.34L105.76 52.36L108.93 52.44L112.01 52.54L115.01 52.62L117.97 52.62L120.91 52.54L123.87 52.33L126.89 51.99L130.01 51.49L133.25 50.82L136.67 49.96L140.30 48.89L144.18 47.62L148.36 46.13L152.88 44.42L157.79 42.52L163.10 40.47L168.86 38.34L175.03 36.25L181.57 34.41L188.32 33.10L195.00 32.72L201.16 33.79L206.17 36.87L209.21 42.48L209.48 50.88L206.38 61.91L199.84 74.82L190.36 88.45L178.90 101.48L166.60 112.79L154.42 121.63L143.07 127.68L132.93 130.97L124.13 131.74L116.70 130.43L110.56 127.52L105.58 123.50L101.63 118.83L98.55 113.88L96.18 108.96L94.36 104.24L92.96 99.84L91.84 95.81L90.89 92.17L90.03 88.89L89.18 85.93L88.28 83.25L87.29 80.82L86.18 78.58L84.92 76.50L83.50 74.54L81.89 72.68L80.09 70.88L78.09 69.11L75.88 67.36L73.48 65.59L70.88 63.78L68.11 61.89L65.19 59.91L62.18 57.79L59.14 55.52L56.18 53.06L53.45 50.42L51.11 47.61L49.42 44.65L48.64 41.62L49.06 38.64L50.97 35.86L54.57 33.49L59.93 31.70L66.96 30.66L75.37 30.47L84.74 31.11L94.57 32.50L104.39 34.47L113.83 36.83L122.63 39.39L130.63 41.99L137.81 44.51L144.18 46.87L149.80 49.03L154.74 50.99L159.07 52.78L162.84 54.41L166.11 55.96L168.90 57.46L171.24 58.97L173.14 60.55L174.59 62.24L175.62 64.07L176.20 66.08L176.35 68.28L176.08 70.67L175.41 73.24L174.36 75.96L172.98 78.81L171.32 81.77L169.42 84.79L167.35 87.86L165.15 90.97L162.88 94.10L160.57 97.25L158.28 100.44L156.02 103.69L153.83 107.03L151.71 110.49L149.69 114.10L147.77 117.90L145.94 121.95L144.20 126.28L142.55 130.92L140.96 135.92L139.40 141.30L137.83 147.05L136.17 153.15L134.33 159.52L132.17 165.99L129.54 172.29L126.22 177.97L122.03 182.43L116.82 184.89L110.55 184.48L103.39 180.49L95.75 172.58L88.23 161.05L81.50 146.86L76.13 131.33L72.46 115.85L70.62 101.52L70.56 89.05L72.09 78.74L74.97 70.62L78.90 64.52L83.57 60.20L88.70 57.35L94.02 55.67L99.29 54.89L104.38 54.74L109.16 55.02L113.61 55.56L117.71 56.21L121.48 56.88L124.96 57.48L128.22 57.98L131.29 58.32L134.24 58.49L137.11 58.46L139.95 58.23L142.81 57.79L145.71 57.14L148.70 56.28L151.82 55.21L155.08 53.94L158.53 52.48L162.18 50.88L166.06 49.16L170.17 47.39L174.50 45.66L179.03 44.09L183.66 42.86L188.27 42.19L192.62 42.34L196.44 43.60L199.32 46.28L200.85 50.60L200.63 56.64L198.40 64.28L194.13 73.17L188.03 82.75L180.56 92.42L172.28 101.61L163.76 109.88L155.43 117.01L147.64 122.89L140.53 127.56L134.19 131.10L128.60 133.63L123.70 135.28L119.43 136.16L115.71 136.39L112.45 136.06L109.59 135.26L107.08 134.09L104.85 132.60L102.86 130.86L101.07 128.94L99.44 126.88L97.94 124.71L96.54 122.49L95.20 120.21L93.90 117.92L92.61 115.60L91.30 113.28L89.94 110.94L88.50 108.59L86.95 106.21L85.27 103.79L83.43 101.31L81.38 98.76L79.10 96.12L76.56 93.37L73.72 90.47L70.54 87.41L66.99 84.14L63.06 80.63L58.73 76.85L54.02 72.72L49.00 68.22L43.80 63.27L38.67 57.85L34.01 51.94L30.41 45.62L28.68 39.07L29.81 32.67L34.73 26.96L44.04 22.65L57.60 20.37L74.39 20.53L92.69 23.14L110.56 27.87L126.41 34.20L139.18 41.59L148.45 49.60L154.29 57.85L157.05 66.02L157.31 73.84L155.69 81.06L152.81 87.50L149.19 93.08L145.25 97.76L141.30 101.60L137.54 104.71L134.08 107.19L130.98 109.19L128.24 110.82L125.87 112.18L123.82 113.36L122.08 114.44L120.59 115.46L119.34 116.47L118.30 117.51L117.43 118.59L116.73 119.74L116.16 120.96L115.73 122.27L115.40 123.67L115.18 125.17L115.05 126.79L115.01 128.51L115.03 130.35L115.11 132.31L115.23 134.40L115.38 136.61L115.54 138.94L115.69 141.38L115.79 143.92L115.83 146.54L115.75 149.21L115.53 151.86L115.12 154.43L114.46 156.83L113.52 158.94L112.26 160.62L110.64 161.70L108.65 162.03L106.31 161.44L103.66 159.82L100.78 157.08L97.74 153.24L94.67 148.40L91.66 142.72L88.79 136.41L86.11 129.73L83.65 122.90L81.38 116.12L79.27 109.53L77.25 103.23L75.28 97.26L73.29 91.65L71.23 86.38L69.07 81.42L66.81 76.73L64.43 72.28L61.98 68.01L59.50 63.89L57.09 59.90L54.88 56.00L53.02 52.20L51.73 48.50L51.24 44.96L51.78 41.65L53.59 38.67L56.84 36.16L61.58 34.25L67.74 33.05L75.11 32.61L83.37 32.92L92.12 33.90L100.99 35.42L109.66 37.31L117.89 39.40L125.55 41.55L132.59 43.62L139.00 45.54L144.84 47.26L150.15 48.77L155.00 50.05L159.43 51.16L163.48 52.12L167.17 53.00L170.52 53.86L173.51 54.78L176.12 55.84L178.31 57.11L180.05 58.67L181.27 60.58L181.94 62.87L182.02 65.56L181.50 68.64L180.37 72.07L178.67 75.80L176.48 79.75L173.86 83.84L170.93 88.00L167.78 92.17L164.52 96.31L161.22 100.40L157.98 104.44L154.84 108.46L151.85 112.48L149.02 116.54L146.39 120.69L143.94 124.97L141.66 129.42L139.55 134.07L137.57 138.95L135.68 144.06L133.83 149.37L131.92 154.84L129.87 160.34L127.55 165.69L124.81 170.60L121.52 174.68L117.53 177.44L112.79 178.29L107.34 176.70L101.34 172.29L95.11 164.99L89.07 155.15L83.61 143.45L79.07 130.82L75.61 118.14L73.29 106.14L72.04 95.29L71.76 85.86L72.29 77.88L73.52 71.30L75.30 66.00L77.52 61.81L80.09 58.58L82.90 56.14L85.88 54.37L88.95 53.12L92.06 52.29L95.16 51.77L98.22 51.49L101.22 51.36L104.17 51.34L107.05 51.36L109.89 51.40L112.70 51.41L115.50 51.37L118.33 51.24L121.21 51.01L124.17 50.67L127.25 50.18L130.49 49.53L133.92 48.71L137.57 47.69L141.50 46.48L145.75 45.05L150.36 43.40L155.38 41.55L160.84 39.52L166.76 37.38L173.15 35.25L179.96 33.31L187.05 31.83L194.16 31.23L200.84 32.03L206.44 34.84L210.10 40.25L210.92 48.64L208.20 59.88L201.76 73.25L192.06 87.52L180.14 101.21L167.22 113.06L154.39 122.20L142.44 128.24L131.78 131.21L122.60 131.42L114.92 129.36L108.66 125.62L103.71 120.79L99.90 115.39L97.07 109.86L95.02 104.49L93.59 99.48L92.60 94.93L91.92 90.87L91.43 87.29L91.04 84.15L90.66 81.38L90.24 78.94L89.75 76.78L89.15 74.83L88.43 73.07L87.56 71.46L86.54 69.96L85.37 68.56L84.03 67.22L82.53 65.93L80.86 64.66L79.04 63.41L77.05 62.15L74.91 60.86L72.63 59.52L70.23 58.12L67.75 56.63L65.22 55.02L62.71 53.30L60.29 51.43L58.07 49.42L56.19 47.28L54.81 45.03L54.10 42.73L54.28 40.44L55.51 38.27L57.96 36.35L61.70 34.79L66.71 33.72L72.86 33.21L79.93 33.29L87.63 33.94L95.63 35.07L103.67 36.56L111.51 38.27L118.99 40.07L126.04 41.84L132.62 43.50L138.75 44.97L144.48 46.22L149.84 47.24L154.88 48.04L159.64 48.65L164.14 49.13L168.39 49.53L172.38 49.96L176.07 50.50L179.40 51.28L182.29 52.41L184.65 54.02L186.36 56.20L187.30 59.02L187.39 62.52L186.57 66.66L184.83 71.37L182.24 76.52L178.91 81.94L175.00 87.48L170.70 92.99L166.20 98.36L161.66 103.54L157.22 108.49L152.98 113.22L149.01 117.77L145.34 122.19L141.98 126.51L138.92 130.80L136.14 135.08L133.60 139.36L131.26 143.66L129.05 147.94L126.91 152.15L124.75 156.19L122.48 159.93L120.01 163.18L117.26 165.72L114.17 167.28L110.69 167.58L106.84 166.37L102.72 163.50L98.44 158.92L94.18 152.78L90.11 145.35L86.38 137.02L83.09 128.25L80.27 119.42L77.90 110.86L75.91 102.80L74.23 95.36L72.78 88.60L71.49 82.50L70.32 77.03L69.23 72.12L68.23 67.72L67.33 63.77L66.55 60.21L65.96 57.00L65.59 54.11L65.52 51.50L65.81 49.17L66.52 47.12L67.71 45.34L69.40 43.83L71.62 42.62L74.35 41.71"/><path d="M110.13 157.11L107.54 156.62L104.84 155.24L102.06 152.94L99.25 149.76L96.47 145.76L93.78 141.09L91.20 135.88L88.78 130.33L86.52 124.60L84.39 118.84L82.36 113.16L80.38 107.63L78.40 102.31L76.36 97.21L74.22 92.34L71.93 87.66L69.46 83.16L66.79 78.80L63.92 74.54L60.88 70.34L57.72 66.17L54.53 61.98L51.44 57.76L48.66 53.50L46.45 49.21L45.13 44.94L45.08 40.82L46.67 37.00L50.22 33.71L55.90 31.16L63.62 29.59L73.06 29.10L83.68 29.70L94.84 31.29L105.91 33.66L116.37 36.55L125.91 39.73L134.34 43.00L141.62 46.23L147.79 49.32L152.95 52.25L157.19 55.00L160.63 57.59L163.35 60.04L165.45 62.39L167.00 64.66L168.05 66.88L168.67 69.07L168.92 71.25L168.82 73.42L168.44 75.60L167.81 77.78L166.96 79.97L165.95 82.16L164.79 84.35L163.53 86.56L162.18 88.78L160.78 91.02L159.35 93.29L157.90 95.62L156.44 98.02L155.00 100.51L153.57 103.11L152.16 105.87L150.78 108.80L149.44 111.95L148.13 115.34L146.84 119.03L145.59 123.06L144.37 127.46L143.15 132.28L141.92 137.56L140.65 143.32L139.27 149.57L137.72 156.26L135.87 163.30L133.56 170.47L130.58 177.39L126.69 183.49L121.65 187.93L115.33 189.67L107.75 187.63L99.28 181.04L90.57 169.82L82.49 154.79L75.90 137.50L71.40 119.79L69.30 103.23L69.63 88.89L72.17 77.29L76.57 68.52L82.35 62.38L89.00 58.51L96.01 56.49L102.94 55.89L109.46 56.31L115.37 57.40L120.58 58.88L125.07 60.55L128.89 62.25L132.13 63.88L134.89 65.36L137.26 66.67L139.33 67.79L141.17 68.69L142.84 69.40L144.40 69.91L145.87 70.23L147.31 70.37L148.72 70.34L150.13 70.15L151.56 69.80L153.02 69.30L154.52 68.67L156.07 67.90L157.69 67.00L159.38 65.98L161.16 64.86L163.03 63.65L164.99 62.36L167.07 61.01L169.25 59.64L171.54 58.29L173.93 56.99L176.38 55.82L178.88 54.85L181.35 54.16L183.72 53.86L185.90 54.05L187.75 54.84L189.13 56.34L189.90 58.61L189.91 61.69L189.07 65.56L187.32 70.14L184.69 75.28L181.27 80.81L177.21 86.54L172.69 92.31L167.92 97.95L163.09 103.40L158.34 108.60L153.80 113.55L149.53 118.28L145.59 122.83L141.98 127.24L138.70 131.57L135.73 135.83L133.01 140.06L130.51 144.25L128.16 148.35L125.89 152.33L123.61 156.07L121.25 159.45L118.72 162.29L115.94 164.38L112.86 165.48L109.47 165.36L105.79 163.83L101.89 160.77L97.91 156.21L93.97 150.29L90.22 143.27L86.78 135.50L83.72 127.35L81.04 119.17L78.72 111.21L76.70 103.68L74.91 96.67L73.27 90.23L71.73 84.34L70.23 78.98L68.75 74.11L67.29 69.65L65.87 65.57L64.52 61.81L63.31 58.34L62.31 55.12L61.62 52.14L61.32 49.39L61.52 46.88L62.34 44.62L63.83 42.66L66.07 41.02L69.06 39.73L72.78 38.83L77.15 38.32L82.06 38.19L87.38 38.41L92.96 38.93L98.67 39.67L104.40 40.56L110.07 41.52L115.63 42.48L121.05 43.35L126.35 44.09L131.54 44.66L136.65 45.01L141.73 45.12L146.82 44.99L151.94 44.62L157.13 44.04L162.42 43.29L167.79 42.45L173.23 41.62L178.67 40.97L183.99 40.69L189.02 41.04L193.49 42.31L197.05 44.81L199.30 48.80L199.87 54.42L198.45 61.63L194.96 70.16L189.54 79.52L182.60 89.14L174.67 98.43L166.31 106.95L158.01 114.39L150.14 120.63L142.90 125.68L136.40 129.59L130.65 132.48L125.60 134.48L121.19 135.71L117.34 136.26L113.98 136.25L111.03 135.76L108.43 134.86L106.14 133.63L104.09 132.13L102.25 130.41L100.59 128.53L99.06 126.53L97.64 124.44L96.31 122.28L95.02 120.09L93.76 117.86L92.50 115.62L91.20 113.36L89.86 111.07L88.43 108.77L86.88 106.42L85.20 104.03L83.35 101.58L81.30 99.04L79.02 96.41L76.47 93.65L73.61 90.75L70.42 87.67L66.85 84.39L62.90 80.86L58.54 77.04L53.81 72.88L48.76 68.33L43.53 63.33L38.37 57.85L33.69 51.88L30.09 45.50L28.41 38.90L29.63 32.45L34.70 26.72L44.21 22.42L58.00 20.19L75.00 20.45L93.45 23.18L111.39 28.04L127.20 34.49L139.87 42.01L148.97 50.13L154.59 58.49L157.13 66.76L157.16 74.63L155.34 81.88L152.29 88.31L148.53 93.83L144.50 98.44L140.48 102.19L136.68 105.18L133.20 107.55L130.09 109.42L127.36 110.92L124.99 112.15L122.96 113.21L121.22 114.16L119.75 115.06L118.51 115.95L117.47 116.86L116.61 117.81L115.90 118.82L115.34 119.90L114.89 121.07L114.56 122.32L114.33 123.67L114.19 125.11L114.13 126.66L114.15 128.32L114.22 130.09L114.35 131.98L114.52 133.99L114.71 136.11L114.91 138.35L115.10 140.71L115.26 143.16L115.34 145.69L115.33 148.27L115.18 150.85L114.86 153.37L114.31 155.74L113.49 157.87L112.38 159.63L110.92 160.86L109.11 161.40L106.95 161.11L104.48 159.86L101.75 157.55L98.85 154.18L95.87 149.80L92.91 144.56L90.06 138.63L87.37 132.24L84.88 125.63L82.57 118.99L80.42 112.47L78.37 106.18L76.38 100.20L74.37 94.53L72.31 89.20L70.15 84.16L67.86 79.39L65.44 74.85L62.91 70.49L60.31 66.28L57.72 62.19L55.24 58.18L53.03 54.24L51.28 50.38L50.23 46.62L50.14 43.04L51.28 39.74L53.87 36.85L58.04 34.52L63.80 32.89L70.98 32.05L79.28 32.04L88.29 32.81L97.57 34.22L106.74 36.12L115.50 38.31L123.66 40.63L131.13 42.94L137.89 45.13L143.96 47.13L149.42 48.93L154.31 50.52L158.71 51.91L162.65 53.16L166.18 54.31L169.31 55.43L172.05 56.56L174.39 57.79L176.32 59.18L177.81 60.77L178.84 62.62L179.38 64.76L179.43 67.19L178.97 69.91L178.02 72.89L176.61 76.10L174.80 79.49L172.65 83.01L170.22 86.59L167.60 90.22L164.86 93.86L162.07 97.49L159.29 101.12L156.56 104.76L153.92 108.45L151.39 112.21L149.00 116.08L146.75 120.11L144.64 124.34L142.66 128.81L140.80 133.55L139.03 138.59L137.30 143.94L135.58 149.58L133.76 155.46L131.75 161.46L129.42 167.39L126.59 172.92L123.09 177.61L118.77 180.84L113.54 181.93L107.45 180.18L100.70 175.11L93.73 166.66L87.04 155.28L81.17 141.90L76.51 127.66L73.27 113.67L71.51 100.76L71.15 89.44L72.01 79.94L73.92 72.24L76.67 66.22L80.05 61.69L83.88 58.40L87.98 56.15L92.19 54.71L96.40 53.88L100.50 53.52L104.46 53.46L108.23 53.59L111.81 53.82L115.23 54.08L118.49 54.30L121.65 54.44L124.73 54.47L127.78 54.36L130.84 54.08L133.95 53.63L137.15 52.98L140.49 52.13L143.99 51.06L147.71 49.78L151.68 48.29L155.95 46.59L160.54 44.72L165.49 42.71L170.80 40.67L176.46 38.70L182.40 37.01L188.47 35.86L194.41 35.62L199.82 36.73L204.15 39.66L206.72 44.82L206.87 52.43L204.11 62.33L198.38 73.93L190.06 86.28L179.93 98.34L168.91 109.16L157.86 118.10L147.41 124.84L137.91 129.33L129.53 131.72L122.30 132.27L116.15 131.31L110.99 129.18L106.69 126.21L103.15 122.70L100.24 118.89L97.83 115.00L95.82 111.14L94.11 107.43L92.58 103.90L91.18 100.58L89.82 97.47L88.44 94.55L86.98 91.80L85.42 89.18L83.70 86.68L81.80 84.26L79.68 81.88L77.32 79.52L74.71 77.14L71.82 74.71L68.64 72.20L65.19 69.55L61.47 66.75L57.54 63.73L53.46 60.45L49.38 56.88L45.50 52.99L42.12 48.79L39.63 44.34L38.55 39.75L39.45 35.27L42.85 31.21L49.10 27.95L58.23 25.87L69.79 25.24L83.00 26.14L96.81 28.43L110.25 31.83L122.53 36.01L133.18 40.64L141.96 45.46L148.89 50.32L154.07 55.10L157.71 59.74L160.03 64.20L161.25 68.46L161.59 72.50L161.24 76.31L160.39 79.90L159.17 83.28L157.72 86.44L156.13 89.42L154.48 92.25L152.81 94.95L151.19 97.57L149.62 100.14L148.12 102.71L146.71 105.32L145.40 108.01L144.17 110.82L143.03 113.79L141.98 116.97L141.00 120.39L140.08 124.10L139.23 128.13L138.41 132.54L137.60 137.35L136.77 142.59L135.86 148.27L134.79 154.37L133.47 160.79L131.74 167.39L129.43 173.88L126.33 179.81L122.23 184.50L116.94 187.10L110.46 186.65L102.96 182.34L94.92 173.80L87.04 161.37L80.07 146.15L74.66 129.64L71.19 113.38L69.80 98.55L70.40 85.88L72.79 75.66L76.65 67.85L81.60 62.26L87.27 58.55L93.28 56.38L99.31 55.39L105.11 55.27L110.54 55.74L115.49 56.57L119.96 57.57L123.96 58.63L127.55 59.63L130.79 60.52L133.75 61.26L136.49 61.81L139.07 62.16L141.54 62.31L143.95 62.25L146.35 61.98L148.75 61.51L151.19 60.84L153.71 59.99L156.31 58.95L159.04 57.75L161.89 56.40L164.90 54.95L168.06 53.42L171.38 51.87L174.85 50.39L178.43 49.06L182.06 48.03L185.64 47.43L189.01 47.46L191.99 48.31L194.33 50.18L195.74 53.22L195.97 57.52L194.82 63.04L192.20 69.61L188.18 76.95L182.97 84.70L176.89 92.47L170.31 99.95L163.59 106.91L157.02 113.22L150.80 118.85L145.07 123.81L139.87 128.16L135.21 131.97L131.06 135.31L127.36 138.21L124.07 140.71L121.11 142.82L118.42 144.55L115.94 145.89L113.62 146.81L111.43 147.29L109.32 147.32L107.27 146.87L105.27 145.94L103.31 144.53L101.39 142.67L99.52 140.39L97.71 137.75L95.95 134.79L94.24 131.58"/></g></svg>
